<svg width="9" height="10" viewBox="0 0 9 10" fill="none" xmlns="http://www.w3.org/2000/svg">
<path d="M1.11328 10V4.90234H0.169922V3.66016H1.11328V3.12109C1.11328 2.41016 1.31641 1.85938 1.72266 1.46875C2.13281 1.07422 2.70508 0.876953 3.43945 0.876953C3.67383 0.876953 3.96094 0.916016 4.30078 0.994141L4.2832 2.30664C4.14258 2.27148 3.9707 2.25391 3.76758 2.25391C3.13086 2.25391 2.8125 2.55273 2.8125 3.15039V3.66016H4.07227V4.90234H2.8125V10H1.11328Z" fill="white"/>
<path d="M8.51367 5.24805C8.2832 5.2168 8.08008 5.20117 7.9043 5.20117C7.26367 5.20117 6.84375 5.41797 6.64453 5.85156V10H4.95117V3.66016H6.55078L6.59766 4.41602C6.9375 3.83398 7.4082 3.54297 8.00977 3.54297C8.19727 3.54297 8.37305 3.56836 8.53711 3.61914L8.51367 5.24805Z" fill="white"/>
</svg>
